<svg width="859" height="311" viewBox="0 0 859 311" fill="none" xmlns="http://www.w3.org/2000/svg">
<path d="M180.1 138.748C180.1 166.623 202.886 189.232 231.072 189.232C259.213 189.232 282.083 166.623 282.083 138.748C282.083 110.858 259.213 88.2448 231.072 88.2448C202.886 88.2448 180.1 110.858 180.1 138.748ZM203.839 138.748C203.839 123.857 216.024 111.767 231.072 111.767C246.134 111.767 258.343 123.857 258.343 138.748C258.343 153.655 246.134 165.712 231.072 165.712C216.024 165.712 203.839 153.655 203.839 138.748Z" fill="url(#paint0_radial_17_27)"/>
<path d="M49.2931 138.727C49.2931 162.59 66.0297 182.544 88.4938 187.801V242.953H112.09V187.801C134.56 182.544 151.291 162.59 151.291 138.727C151.291 110.858 128.447 88.2448 100.305 88.2448C72.1346 88.2448 49.2931 110.858 49.2931 138.727ZM73.04 138.727C73.04 123.832 85.2441 111.752 100.305 111.752C115.38 111.752 127.552 123.832 127.552 138.727C127.552 153.628 115.38 165.712 100.305 165.712C85.2441 165.712 73.04 153.628 73.04 138.727Z" fill="url(#paint1_radial_17_27)"/>
<path d="M457.002 103.047C437.068 122.759 437.068 154.713 457.002 174.436C473.937 191.22 499.828 193.658 519.462 181.906L532.871 195.154L549.508 178.671L536.256 165.548C548.616 146.052 546.266 120.006 529.118 103.047C519.155 93.1832 506.103 88.2504 493.054 88.2504C480.006 88.2504 466.959 93.1832 457.002 103.047ZM473.781 157.835C463.136 147.287 463.136 130.186 473.773 119.656C484.411 109.104 501.65 109.104 512.303 119.656C522.969 130.186 522.969 147.287 512.303 157.835C507.003 163.097 500.028 165.729 493.052 165.729C486.077 165.729 479.095 163.097 473.781 157.835Z" fill="url(#paint2_radial_17_27)"/>
<path d="M350.226 40.8823V89.6493C327.731 94.9232 311.002 114.873 311.002 138.727V189.183H334.721L334.736 138.832V138.727C334.736 123.832 346.932 111.751 362.009 111.751C377.042 111.751 389.261 123.832 389.261 138.727V138.832H389.29L389.295 189.183H412.993V138.727C412.993 114.873 396.25 94.9346 373.756 89.6493V40.8823H350.226Z" fill="url(#paint3_radial_17_27)"/>
<path d="M572.963 138.538H572.925V189.183H596.695V138.538H596.716C596.979 123.864 609.055 112.043 623.955 112.043C638.858 112.043 650.927 123.864 651.197 138.538V189.183H674.938V138.538H674.908C674.652 110.871 651.933 88.5305 623.955 88.5305C595.954 88.5305 573.249 110.871 572.963 138.538Z" fill="url(#paint4_radial_17_27)"/>
<path d="M781.068 96.0498C761.515 83.6779 735.519 85.9993 718.546 103.191C698.834 123.069 698.834 155.363 718.569 175.286C722.274 179.029 726.419 182.054 730.853 184.416C714.736 192.901 703.772 209.68 703.772 229.018C703.772 256.882 726.585 279.481 754.748 279.481C782.911 279.481 805.759 256.882 805.759 229.018C805.759 209.461 794.517 192.524 778.11 184.153C782.37 181.845 786.367 178.892 789.956 175.267C806.736 158.336 809.182 132.422 797.389 112.819L810.678 99.4119L794.189 82.7611L781.068 96.0498ZM735.176 158.515C724.624 147.864 724.624 130.623 735.176 119.941C745.729 109.298 762.799 109.298 773.322 119.941C783.874 130.598 783.874 147.836 773.322 158.488C768.052 163.816 761.147 166.478 754.243 166.48C747.345 166.48 740.449 163.823 735.176 158.515ZM727.504 229.018C727.504 214.121 739.672 202.027 754.748 202.027C769.81 202.027 782.014 214.121 782.014 229.018C782.014 243.929 769.81 255.998 754.748 255.998C739.672 255.998 727.504 243.929 727.504 229.018Z" fill="url(#paint5_radial_17_27)"/>
<mask id="mask0_17_27" style="mask-type:luminance" maskUnits="userSpaceOnUse" x="0" y="0" width="859" height="311">
<path d="M0 1.21808e-05H859V311H0V1.21808e-05Z" fill="white"/>
</mask>
<g mask="url(#mask0_17_27)">
<path d="M576.01 286.752C570.028 286.752 565.157 282.083 565.157 276.288C565.157 270.509 570.028 265.824 576.01 265.824C581.992 265.824 586.847 270.509 586.847 276.288C586.847 282.083 581.992 286.752 576.01 286.752ZM576.01 256.879C564.241 256.879 554.693 265.569 554.693 276.288C554.693 287.037 564.241 295.729 576.01 295.729C587.771 295.729 597.325 287.037 597.325 276.288C597.325 265.569 587.771 256.879 576.01 256.879Z" fill="black"/>
<path d="M598.812 231.402V218.538H587.854V253.343H598.812V241.61H608.007V231.402H598.812Z" fill="black"/>
<path d="M554.324 248.35C549.693 248.35 545.916 244.673 545.916 240.192C545.916 235.696 549.693 232.055 554.324 232.055C558.956 232.055 562.737 235.696 562.737 240.192C562.737 244.673 558.956 248.35 554.324 248.35ZM575.468 221.33H559.774V214.658H548.824V221.33H533.174V230.493H538.623C536.557 233.278 535.358 236.627 535.358 240.192C535.358 249.732 543.854 257.495 554.324 257.495C564.78 257.495 573.272 249.732 573.272 240.192C573.272 236.627 572.093 233.278 570.019 230.493H575.468V221.33Z" fill="black"/>
<path d="M664.986 290.28H675.944V216.781H664.986V290.28Z" fill="black"/>
<path d="M639.361 227.38V219.918H628.176V227.38C628.176 255.858 609.74 264.235 609.74 264.235L616.827 272.671C616.827 272.671 628.776 265.376 633.76 253.966C638.758 265.376 650.7 272.671 650.7 272.671L657.788 264.235C657.788 264.235 639.361 255.858 639.361 227.38Z" fill="black"/>
<path d="M492.484 275.523V263.783H481.486V275.523H452.103V285.955H522.897V275.523H492.484Z" fill="black"/>
<path d="M478.155 230.313H496.432V249.146H478.155V230.313ZM492.43 259.311H516.442V249.146H507.195V230.313H516.442V220.098H458.075V230.313H467.338V249.146H458.075V259.311H481.697H492.43Z" fill="black"/>
</g>
<defs>
<radialGradient id="paint0_radial_17_27" cx="0" cy="0" r="1" gradientUnits="userSpaceOnUse" gradientTransform="translate(214.52 99.4848) scale(55.8821 55.8821)">
<stop stop-color="#D8EEF2"/>
<stop offset="0.5" stop-color="#00B5E3"/>
<stop offset="1" stop-color="#0074BF"/>
</radialGradient>
<radialGradient id="paint1_radial_17_27" cx="0" cy="0" r="1" gradientUnits="userSpaceOnUse" gradientTransform="translate(83.7171 105.464) scale(76.2078 76.2078)">
<stop stop-color="#D8EEF2"/>
<stop offset="0.5" stop-color="#00B5E3"/>
<stop offset="1" stop-color="#0074BF"/>
</radialGradient>
<radialGradient id="paint2_radial_17_27" cx="0" cy="0" r="1" gradientUnits="userSpaceOnUse" gradientTransform="translate(478.318 100.149) scale(59.0563 59.0564)">
<stop stop-color="#D8EEF2"/>
<stop offset="0.5" stop-color="#00B5E3"/>
<stop offset="1" stop-color="#0074BF"/>
</radialGradient>
<radialGradient id="paint3_radial_17_27" cx="0" cy="0" r="1" gradientUnits="userSpaceOnUse" gradientTransform="translate(345.425 57.3887) scale(73.6749 73.6749)">
<stop stop-color="#D8EEF2"/>
<stop offset="0.5" stop-color="#00B5E3"/>
<stop offset="1" stop-color="#0074BF"/>
</radialGradient>
<radialGradient id="paint4_radial_17_27" cx="0" cy="0" r="1" gradientUnits="userSpaceOnUse" gradientTransform="translate(607.355 99.7321) scale(55.7697 55.7697)">
<stop stop-color="#D8EEF2"/>
<stop offset="0.5" stop-color="#00B5E3"/>
<stop offset="1" stop-color="#0074BF"/>
</radialGradient>
<radialGradient id="paint5_radial_17_27" cx="0" cy="0" r="1" gradientUnits="userSpaceOnUse" gradientTransform="translate(739.846 104.656) scale(93.8336 93.8335)">
<stop stop-color="#D8EEF2"/>
<stop offset="0.5" stop-color="#00B5E3"/>
<stop offset="1" stop-color="#0074BF"/>
</radialGradient>
</defs>
</svg>
